<svg width="70" height="70" viewBox="0 0 70 70" fill="none" xmlns="http://www.w3.org/2000/svg">
<path fill-rule="evenodd" clip-rule="evenodd" d="M28.4073 43.75H44.6086C47.1601 43.75 49.4156 42.0919 50.1766 39.6564L54.3661 26.25H21.4893L22.5979 38.4449C22.871 41.4493 25.3903 43.75 28.4073 43.75ZM19.6932 38.7088C20.1029 43.2156 23.8818 46.6666 28.4073 46.6666H44.6086C48.4359 46.6666 51.8189 44.1796 52.9605 40.5265L57.15 27.1199C57.7369 25.2418 56.3339 23.3333 54.3661 23.3333H18.2954L19.6932 38.7088Z" fill="#64626D"/>
<path fill-rule="evenodd" clip-rule="evenodd" d="M7.29166 14.5833C7.29166 13.7779 7.94458 13.125 8.74999 13.125H17.5C18.1692 13.125 18.7525 13.5804 18.9148 14.2296L21.8314 25.8963C22.0268 26.6777 21.5517 27.4695 20.7704 27.6648C19.989 27.8601 19.1972 27.3851 19.0019 26.6037L16.3614 16.0417H8.74999C7.94458 16.0417 7.29166 15.3887 7.29166 14.5833Z" fill="#64626D"/>
<path fill-rule="evenodd" clip-rule="evenodd" d="M27.7083 48.125C26.0975 48.125 24.7917 49.4308 24.7917 51.0416C24.7917 52.6525 26.0975 53.9583 27.7083 53.9583C29.3192 53.9583 30.625 52.6525 30.625 51.0416C30.625 49.4308 29.3192 48.125 27.7083 48.125ZM21.875 51.0416C21.875 47.8199 24.4867 45.2083 27.7083 45.2083C30.9301 45.2083 33.5417 47.8199 33.5417 51.0416C33.5417 54.2634 30.9301 56.875 27.7083 56.875C24.4867 56.875 21.875 54.2634 21.875 51.0416Z" fill="#64626D"/>
<path fill-rule="evenodd" clip-rule="evenodd" d="M45.2083 48.125C43.5975 48.125 42.2917 49.4308 42.2917 51.0416C42.2917 52.6525 43.5975 53.9583 45.2083 53.9583C46.8192 53.9583 48.125 52.6525 48.125 51.0416C48.125 49.4308 46.8192 48.125 45.2083 48.125ZM39.375 51.0416C39.375 47.8199 41.9866 45.2083 45.2083 45.2083C48.4301 45.2083 51.0417 47.8199 51.0417 51.0416C51.0417 54.2634 48.4301 56.875 45.2083 56.875C41.9866 56.875 39.375 54.2634 39.375 51.0416Z" fill="#64626D"/>
</svg>
