<svg width="72" height="72" viewBox="0 0 72 72" fill="none" xmlns="http://www.w3.org/2000/svg">
<path fill-rule="evenodd" clip-rule="evenodd" d="M7.5 21C7.5 18.5147 9.51471 16.5 12 16.5H60C62.4852 16.5 64.5 18.5147 64.5 21V27C64.5 29.4853 62.4852 31.5 60 31.5H12C9.51471 31.5 7.5 29.4853 7.5 27V21ZM12 19.5C11.1716 19.5 10.5 20.1716 10.5 21V27C10.5 27.8284 11.1716 28.5 12 28.5H60C60.8283 28.5 61.5 27.8284 61.5 27V21C61.5 20.1716 60.8283 19.5 60 19.5H12Z" fill="#64626D"/>
<path fill-rule="evenodd" clip-rule="evenodd" d="M10.5 28.5H61.5V51C61.5 56.799 56.799 61.5 51 61.5H21C15.201 61.5 10.5 56.799 10.5 51V28.5ZM13.5 31.5V51C13.5 55.1421 16.8579 58.5 21 58.5H51C55.1421 58.5 58.5 55.1421 58.5 51V31.5H13.5Z" fill="#64626D"/>
<path fill-rule="evenodd" clip-rule="evenodd" d="M19.5 39C19.5 38.1717 20.1716 37.5 21 37.5H40.5C41.3283 37.5 42 38.1717 42 39C42 39.8283 41.3283 40.5 40.5 40.5H21C20.1716 40.5 19.5 39.8283 19.5 39Z" fill="#64626D"/>
<path fill-rule="evenodd" clip-rule="evenodd" d="M19.5 48C19.5 47.1717 20.1716 46.5 21 46.5H36C36.8283 46.5 37.5 47.1717 37.5 48C37.5 48.8283 36.8283 49.5 36 49.5H21C20.1716 49.5 19.5 48.8283 19.5 48Z" fill="#64626D"/>
</svg>
